<svg width="310" height="132" viewBox="0 0 110 44" fill="none" xmlns="http://www.w3.org/2000/svg">
<path d="M55.3563 11.5868C55.3563 13.4326 54.8628 14.844 53.8758 15.8212C52.8986 16.7984 51.502 17.2869 49.6858 17.2869C48.6297 17.2869 47.6427 17.2129 46.7247 17.0649V6.40496C47.6427 6.2569 48.6297 6.18288 49.6858 6.18288C51.4921 6.18288 52.8887 6.65665 53.8758 7.60419C54.8628 8.54187 55.3563 9.86942 55.3563 11.5868ZM53.3872 11.5868C53.3872 9.08967 52.1879 7.84108 49.7895 7.84108C49.4144 7.84108 49.0739 7.87069 48.7679 7.92991V15.5399C49.0739 15.5991 49.4144 15.6287 49.7895 15.6287C50.9936 15.6287 51.8918 15.2981 52.484 14.6368C53.0861 13.9755 53.3872 12.9588 53.3872 11.5868ZM55.6971 17.1389L59.4428 6.33093H61.6636L65.4242 17.1389H63.2034L62.4335 14.5331H58.6285L57.8438 17.1389H55.6971ZM59.0875 12.9489H61.9597L60.5384 8.15199H60.5088L59.0875 12.9489ZM66.8728 6.33093H73.4316V8.00394H68.9456V10.8466H73.1355V12.4456H68.9456V17.1389H66.8728V6.33093ZM77.443 12.9193V17.1389H75.3998V6.40496C76.4066 6.2569 77.4923 6.18288 78.657 6.18288C80.1079 6.18288 81.1937 6.45431 81.9142 6.99717C82.6347 7.53017 82.995 8.28524 82.995 9.2624C82.995 9.97306 82.8025 10.5949 82.4176 11.1279C82.0425 11.6609 81.5292 12.031 80.8778 12.2383V12.2679C81.3516 12.5443 81.7612 13.1315 82.1067 14.0297L83.2911 17.1389H81.1591L80.0339 14.0742C79.8562 13.6004 79.6539 13.2895 79.4269 13.1414C79.1999 12.9934 78.81 12.9193 78.2573 12.9193H77.443ZM77.443 11.35H78.3165C80.0734 11.35 80.9518 10.7232 80.9518 9.46968C80.9518 8.35434 80.1375 7.79667 78.5089 7.79667C78.1043 7.79667 77.7489 7.82628 77.443 7.8855V11.35ZM85.1916 17.1389V6.33093H87.4568V17.1389H85.1916ZM46.7247 26.405C47.7513 26.2569 48.837 26.1829 49.9819 26.1829C51.4625 26.1829 52.5729 26.479 53.3131 27.0712C54.0534 27.6535 54.4236 28.5024 54.4236 29.6177C54.4236 30.8515 54.0633 31.7843 53.3428 32.416C52.6321 33.0476 51.576 33.3635 50.1744 33.3635C49.6019 33.3635 49.1331 33.3438 48.7679 33.3043V37.1389H46.7247V26.405ZM48.7679 31.7053C49.143 31.7645 49.5476 31.7941 49.9819 31.7941C50.7814 31.7941 51.3884 31.6214 51.803 31.2759C52.2274 30.9206 52.4396 30.4172 52.4396 29.7658C52.4396 28.453 51.6204 27.7967 49.9819 27.7967C49.5378 27.7967 49.1331 27.8263 48.7679 27.8855V31.7053ZM57.9166 32.9193V37.1389H55.8734V26.405C56.8802 26.2569 57.9659 26.1829 59.1306 26.1829C60.5816 26.1829 61.6673 26.4543 62.3878 26.9972C63.1084 27.5302 63.4686 28.2852 63.4686 29.2624C63.4686 29.9731 63.2761 30.5949 62.8912 31.1279C62.5161 31.6609 62.0029 32.031 61.3514 32.2383V32.2679C61.8252 32.5443 62.2348 33.1315 62.5803 34.0297L63.7647 37.1389H61.6327L60.5075 34.0742C60.3299 33.6004 60.1275 33.2895 59.9005 33.1414C59.6735 32.9934 59.2836 32.9193 58.7309 32.9193H57.9166ZM57.9166 31.35H58.7901C60.547 31.35 61.4255 30.7232 61.4255 29.4697C61.4255 28.3543 60.6112 27.7967 58.9826 27.7967C58.5779 27.7967 58.2226 27.8263 57.9166 27.8855V31.35ZM67.4419 28.0039V30.6541H71.7799V32.2383H67.4419V35.4659H72.076V37.1389H65.3691V26.3309H72.076V28.0039H67.4419ZM82.7446 29.8398H82.715L80.3461 34.4295H78.4806L76.1117 29.8398H76.0821V37.1389H74.113V26.3309H76.1858L79.3985 32.6973H79.4282L82.6409 26.3309H84.7729V37.1389H82.7446V29.8398ZM87.2592 37.1389V26.3309H89.5244V37.1389H87.2592ZM94.0783 28.0039V30.6541H98.4163V32.2383H94.0783V35.4659H98.7124V37.1389H92.0056V26.3309H98.7124V28.0039H94.0783ZM102.793 32.9193V37.1389H100.749V26.405C101.756 26.2569 102.842 26.1829 104.007 26.1829C105.458 26.1829 106.543 26.4543 107.264 26.9972C107.984 27.5302 108.345 28.2852 108.345 29.2624C108.345 29.9731 108.152 30.5949 107.767 31.1279C107.392 31.6609 106.879 32.031 106.227 32.2383V32.2679C106.701 32.5443 107.111 33.1315 107.456 34.0297L108.641 37.1389H106.509L105.384 34.0742C105.206 33.6004 105.004 33.2895 104.777 33.1414C104.549 32.9934 104.16 32.9193 103.607 32.9193H102.793ZM102.793 31.35H103.666C105.423 31.35 106.301 30.7232 106.301 29.4697C106.301 28.3543 105.487 27.7967 103.859 27.7967C103.454 27.7967 103.099 27.8263 102.793 27.8855V31.35Z" fill="#F7F6F1"/>
<path fill-rule="evenodd" clip-rule="evenodd" d="M13.6665 0H2.27776V11.3888H12.5277V21.6387H22.7775V30.7497H12.5277V22.7775H4.55551V30.7497H12.5277L12.5277 43.2773H23.9164V33.0274H35.3052V20.4998H23.9164V9.11102H13.6665V0ZM4.55489 30.7497H0V35.3046H4.55489V30.7497Z" fill="#FC7E54"/>
</svg>
